<svg width="489" height="535" viewBox="0 0 489 535" fill="none" xmlns="http://www.w3.org/2000/svg">
<path fill-rule="evenodd" clip-rule="evenodd" d="M108.628 102.37C133.361 60.5711 106.435 -3.05593 140.155 -38.0096C171.744 -70.7545 226.915 -74.0765 271.828 -66.8011C315.341 -59.7527 344.182 -19.1337 383.207 1.36174C418.118 19.6969 458.303 24.9487 490.33 47.9539C526.195 73.7154 575.389 99.0399 580.288 142.925C585.478 189.406 520.875 218.547 514.549 264.887C508.008 312.808 569.826 363.782 544.515 404.995C519.917 445.048 450.045 413.991 408.957 436.819C368.333 459.391 358.201 535.952 311.756 534.318C262.752 532.593 252.548 455.618 210.834 429.847C178.226 409.702 132.805 424.082 100.34 403.708C65.2336 381.675 36.4988 348.652 20.5203 310.408C4.02944 270.938 -8.03478 223.634 8.64756 184.244C25.6596 144.075 86.4144 139.912 108.628 102.37Z" fill="#3D32F9"/>
</svg>
