<svg width="73" height="539" viewBox="0 0 73 539" fill="none" xmlns="http://www.w3.org/2000/svg">
<path fill-rule="evenodd" clip-rule="evenodd" d="M72.096 98.8285C92.779 62.7749 148.837 70.7181 189.181 60.7162C221.439 52.7189 254.381 54.2963 286.479 45.6791C326.815 34.8502 363.378 -10.5611 402.746 3.38104C441.428 17.08 432.874 81.5443 463.826 108.486C500.409 140.328 569.367 127.8 593.813 169.688C616.42 208.425 592.837 259.673 576.417 301.41C561.428 339.509 527.411 365.104 503.779 398.536C480.349 431.683 469.428 474.087 437.052 498.571C403.578 523.884 361.115 539.983 319.188 538.126C277.999 536.302 246.809 501.24 207.626 488.409C165.346 474.564 115.829 484.513 79.0437 459.49C40.7696 433.455 -2.97164 393.483 0.189279 347.301C3.76359 295.079 80.5636 274.969 95.1147 224.688C107.121 183.2 50.6041 136.292 72.096 98.8285Z" fill="#391F6F"/>
</svg>
