<svg width="366" height="542" viewBox="0 0 366 542" fill="none" xmlns="http://www.w3.org/2000/svg">
<path fill-rule="evenodd" clip-rule="evenodd" d="M57.412 153.966C82.9762 121.308 135.362 126.936 169.157 102.893C207.75 75.4351 222.674 15.809 268.489 3.79419C312.842 -7.83732 360.957 16.5733 398.629 42.7147C434.146 67.361 452.678 108.664 473.894 146.331C491.936 178.362 506.02 211.693 514.019 247.576C521.671 281.9 515.719 316.655 519.654 351.6C524.942 398.566 574.857 456.635 541.309 489.925C503.926 527.02 431.223 458.92 385.379 484.84C339.573 510.738 358.229 601.177 309.485 620.997C267.8 637.947 224.936 591.375 188.576 564.865C156.676 541.606 141.129 503.038 111.664 476.762C78.3637 447.066 19.7326 441.92 3.92194 400.197C-11.5842 359.278 25.6665 317.098 34.9557 274.337C43.7303 233.945 31.9344 186.515 57.412 153.966Z" fill="#CE1AFE"/>
</svg>
