<svg width="260" height="251" viewBox="0 0 260 251" fill="none" xmlns="http://www.w3.org/2000/svg">
<g filter="url(#filter0_f_510_634)">
<path d="M162.604 88.6078H97.929C92.7537 88.6078 88.5583 94.3583 88.5583 101.452V150.041C88.5583 157.134 92.7537 162.885 97.929 162.885H162.604C167.779 162.885 171.975 157.134 171.975 150.041V101.452C171.975 94.3583 167.779 88.6078 162.604 88.6078Z" fill="url(#paint0_linear_510_634)"/>
<path style="mix-blend-mode:overlay" d="M171.975 106.134H88.5583V121.991H171.975V106.134Z" fill="url(#paint1_linear_510_634)"/>
</g>
<path d="M162.604 88.6078H97.929C92.7537 88.6078 88.5583 94.3583 88.5583 101.452V150.041C88.5583 157.134 92.7537 162.885 97.929 162.885H162.604C167.779 162.885 171.975 157.134 171.975 150.041V101.452C171.975 94.3583 167.779 88.6078 162.604 88.6078Z" fill="url(#paint2_linear_510_634)"/>
<path style="mix-blend-mode:overlay" d="M171.975 106.134H88.5583V121.991H171.975V106.134Z" fill="url(#paint3_linear_510_634)"/>
<g filter="url(#filter1_b_510_634)">
<path d="M172.716 128.635H87.2842C83.5374 128.635 80.5 132.801 80.5 137.939V179.304C80.5 184.442 83.5374 188.608 87.2842 188.608H172.716C176.463 188.608 179.5 184.442 179.5 179.304V137.939C179.5 132.801 176.463 128.635 172.716 128.635Z" fill="url(#paint4_linear_510_634)"/>
<path d="M87.2842 129.635H172.716C174.192 129.635 175.614 130.453 176.705 131.949C177.795 133.444 178.5 135.559 178.5 137.939V179.304C178.5 181.684 177.795 183.798 176.705 185.293C175.614 186.789 174.192 187.608 172.716 187.608H87.2842C85.8084 187.608 84.3858 186.789 83.2951 185.293C82.2049 183.798 81.5 181.684 81.5 179.304V137.939C81.5 135.559 82.2049 133.444 83.2951 131.949C84.3858 130.453 85.8084 129.635 87.2842 129.635Z" stroke="url(#paint5_linear_510_634)" stroke-width="2"/>
</g>
<defs>
<filter id="filter0_f_510_634" x="0.55835" y="0.607788" width="259.417" height="250.277" filterUnits="userSpaceOnUse" color-interpolation-filters="sRGB">
<feFlood flood-opacity="0" result="BackgroundImageFix"/>
<feBlend mode="normal" in="SourceGraphic" in2="BackgroundImageFix" result="shape"/>
<feGaussianBlur stdDeviation="44" result="effect1_foregroundBlur_510_634"/>
</filter>
<filter id="filter1_b_510_634" x="62.5" y="110.635" width="135" height="95.9727" filterUnits="userSpaceOnUse" color-interpolation-filters="sRGB">
<feFlood flood-opacity="0" result="BackgroundImageFix"/>
<feGaussianBlur in="BackgroundImageFix" stdDeviation="9"/>
<feComposite in2="SourceAlpha" operator="in" result="effect1_backgroundBlur_510_634"/>
<feBlend mode="normal" in="SourceGraphic" in2="effect1_backgroundBlur_510_634" result="shape"/>
</filter>
<linearGradient id="paint0_linear_510_634" x1="129.846" y1="84.9106" x2="131.368" y2="163.898" gradientUnits="userSpaceOnUse">
<stop stop-color="#FFC200"/>
<stop offset="1" stop-color="#F82AC6"/>
</linearGradient>
<linearGradient id="paint1_linear_510_634" x1="87.3345" y1="114.914" x2="174.985" y2="113.99" gradientUnits="userSpaceOnUse">
<stop stop-color="white" stop-opacity="0.5"/>
<stop offset="1" stop-color="white"/>
</linearGradient>
<linearGradient id="paint2_linear_510_634" x1="129.846" y1="84.9106" x2="131.368" y2="163.898" gradientUnits="userSpaceOnUse">
<stop stop-color="#FFC200"/>
<stop offset="1" stop-color="#F82AC6"/>
</linearGradient>
<linearGradient id="paint3_linear_510_634" x1="87.3345" y1="114.914" x2="174.985" y2="113.99" gradientUnits="userSpaceOnUse">
<stop stop-color="white" stop-opacity="0.5"/>
<stop offset="1" stop-color="white"/>
</linearGradient>
<linearGradient id="paint4_linear_510_634" x1="86.0891" y1="185.222" x2="133.242" y2="107.384" gradientUnits="userSpaceOnUse">
<stop stop-color="white" stop-opacity="0.2"/>
<stop offset="1" stop-color="white" stop-opacity="0.49"/>
</linearGradient>
<linearGradient id="paint5_linear_510_634" x1="87.4883" y1="133.352" x2="130.587" y2="209.422" gradientUnits="userSpaceOnUse">
<stop stop-color="white"/>
<stop offset="1" stop-color="white" stop-opacity="0"/>
</linearGradient>
</defs>
</svg>
