<svg width="241" height="242" viewBox="0 0 241 242" fill="none" xmlns="http://www.w3.org/2000/svg">
<g id="chat">
<g id="Vector" filter="url(#filter0_f_510_402)">
<path d="M121.383 88.5935C138.505 89.1453 152.328 103.248 152.499 120.312C152.556 126.56 150.821 132.394 147.774 137.352C147.343 138.05 147.261 138.902 147.522 139.673L150.511 148.599C151.537 151.674 148.475 154.538 145.461 153.321L136.232 149.589C135.515 149.296 134.709 149.305 134.017 149.629C129.903 151.56 125.317 152.656 120.479 152.672C103.138 152.753 88.6794 138.853 88.1744 121.586C87.6287 103.094 102.82 87.9931 121.391 88.5854L121.383 88.5935Z" fill="url(#paint0_linear_510_402)"/>
</g>
<g id="icon">
<path id="Vector_2" d="M121.383 88.5936C138.505 89.1454 152.328 103.248 152.499 120.312C152.556 126.56 150.821 132.394 147.774 137.352C147.343 138.05 147.261 138.902 147.522 139.673L150.511 148.599C151.537 151.674 148.475 154.538 145.461 153.321L136.232 149.589C135.515 149.297 134.709 149.305 134.017 149.629C129.903 151.56 125.317 152.656 120.479 152.672C103.138 152.753 88.6794 138.853 88.1744 121.586C87.6287 103.094 102.82 87.9931 121.391 88.5855L121.383 88.5936Z" fill="url(#paint1_linear_510_402)"/>
<g id="Vector_3" filter="url(#filter1_b_510_402)">
<path d="M85.7376 55.0223C63.5919 55.735 45.7203 74.0861 45.5021 96.2921C45.4213 104.423 47.6674 112.019 51.6101 118.458C52.1676 119.365 52.2727 120.474 51.9414 121.486L48.0794 133.108C46.7463 137.108 50.7052 140.834 54.6076 139.246L66.549 134.395C67.47 134.023 68.5123 134.023 69.4172 134.452C74.7334 136.963 80.6637 138.388 86.9253 138.412C109.354 138.509 128.049 120.434 128.704 97.9604C129.407 73.8917 109.766 54.2449 85.7457 55.0223H85.7376Z" fill="url(#paint2_linear_510_402)"/>
<path d="M46.5021 96.302L46.5021 96.3019C46.7149 74.6341 64.1543 56.7259 85.7538 56.0223H85.7618L85.778 56.0218C109.219 55.2631 128.391 74.4359 127.704 97.9312C127.066 119.863 108.815 137.507 86.9296 137.412H86.9291C80.819 137.389 75.0334 135.998 69.8457 133.549C68.669 132.99 67.3341 132.999 66.174 133.468L66.1726 133.469L54.2312 138.32L54.2308 138.32C51.1246 139.583 47.9633 136.619 49.0282 133.424L49.0284 133.423L52.8904 121.802L52.8918 121.797C53.3085 120.524 53.1829 119.108 52.4629 117.935C48.6154 111.653 46.4232 104.24 46.5021 96.302Z" stroke="url(#paint3_linear_510_402)" stroke-width="2"/>
</g>
</g>
</g>
<defs>
<filter id="filter0_f_510_402" x="0.160156" y="0.568573" width="240.34" height="241.039" filterUnits="userSpaceOnUse" color-interpolation-filters="sRGB">
<feFlood flood-opacity="0" result="BackgroundImageFix"/>
<feBlend mode="normal" in="SourceGraphic" in2="BackgroundImageFix" result="shape"/>
<feGaussianBlur stdDeviation="44" result="effect1_foregroundBlur_510_402"/>
</filter>
<filter id="filter1_b_510_402" x="27.5" y="37" width="119.222" height="120.621" filterUnits="userSpaceOnUse" color-interpolation-filters="sRGB">
<feFlood flood-opacity="0" result="BackgroundImageFix"/>
<feGaussianBlur in="BackgroundImageFix" stdDeviation="9"/>
<feComposite in2="SourceAlpha" operator="in" result="effect1_backgroundBlur_510_402"/>
<feBlend mode="normal" in="SourceGraphic" in2="effect1_backgroundBlur_510_402" result="shape"/>
</filter>
<linearGradient id="paint0_linear_510_402" x1="113.547" y1="90.7682" x2="127.925" y2="154.619" gradientUnits="userSpaceOnUse">
<stop stop-color="#0BC7FF"/>
<stop offset="1" stop-color="#DB0EFE"/>
</linearGradient>
<linearGradient id="paint1_linear_510_402" x1="113.547" y1="90.7682" x2="127.925" y2="154.619" gradientUnits="userSpaceOnUse">
<stop stop-color="#0BC7FF"/>
<stop offset="1" stop-color="#DB0EFE"/>
</linearGradient>
<linearGradient id="paint2_linear_510_402" x1="50.1984" y1="134.844" x2="125.254" y2="61.0284" gradientUnits="userSpaceOnUse">
<stop stop-color="white" stop-opacity="0.2"/>
<stop offset="1" stop-color="white" stop-opacity="0.49"/>
</linearGradient>
<linearGradient id="paint3_linear_510_402" x1="51.3746" y1="61.6553" x2="122.179" y2="136.11" gradientUnits="userSpaceOnUse">
<stop stop-color="white"/>
<stop offset="1" stop-color="white" stop-opacity="0"/>
</linearGradient>
</defs>
</svg>
