<svg width="266" height="266" viewBox="0 0 266 266" fill="none" xmlns="http://www.w3.org/2000/svg">
<g filter="url(#filter0_f_510_524)">
<path d="M121.377 88.0001C124.711 88.0001 127.412 90.7116 127.412 94.0578V118H115.341V94.0578C115.341 90.7116 118.042 88.0001 121.377 88.0001Z" fill="url(#paint0_linear_510_524)"/>
<path d="M145.521 88.0001C148.855 88.0001 151.556 90.7116 151.556 94.0578V118H139.485V94.0578C139.485 90.7116 142.186 88.0001 145.521 88.0001Z" fill="url(#paint1_linear_510_524)"/>
<path d="M88.323 144.827C88.323 141.481 91.0248 138.769 94.3589 138.769H118.215V150.885H94.3589C91.0248 150.885 88.323 148.173 88.323 144.827Z" fill="url(#paint2_linear_510_524)"/>
<path d="M88.323 120.596C88.323 117.25 91.0248 114.539 94.3589 114.539H118.215V126.654H94.3589C91.0248 126.654 88.323 123.942 88.323 120.596Z" fill="url(#paint3_linear_510_524)"/>
<path d="M144.946 178C141.612 178 138.91 175.289 138.91 171.942V148H150.982V171.942C150.982 175.289 148.28 178 144.946 178Z" fill="url(#paint4_linear_510_524)"/>
<path d="M120.802 178C117.468 178 114.766 175.289 114.766 171.942V148H126.838V171.942C126.838 175.289 124.136 178 120.802 178Z" fill="url(#paint5_linear_510_524)"/>
<path d="M178 121.173C178 124.519 175.298 127.231 171.964 127.231H148.108V115.115H171.964C175.298 115.115 178 117.827 178 121.173Z" fill="url(#paint6_linear_510_524)"/>
<path d="M178 145.404C178 148.75 175.298 151.462 171.964 151.462H148.108V139.346H171.964C175.298 139.346 178 142.058 178 145.404Z" fill="url(#paint7_linear_510_524)"/>
</g>
<g filter="url(#filter1_f_510_524)">
<path d="M148.108 118H118.215V148H148.108V118Z" fill="white"/>
</g>
<path d="M115.054 88C118.388 88 121.09 90.7116 121.09 94.0577V118H109.018V94.0577C109.018 90.7116 111.72 88 115.054 88Z" fill="url(#paint8_linear_510_524)"/>
<path d="M139.197 88C142.531 88 145.233 90.7116 145.233 94.0577V118H133.161V94.0577C133.161 90.7116 135.863 88 139.197 88Z" fill="url(#paint9_linear_510_524)"/>
<path d="M82 144.827C82 141.481 84.7018 138.769 88.0359 138.769H111.892V150.885H88.0359C84.7018 150.885 82 148.173 82 144.827Z" fill="url(#paint10_linear_510_524)"/>
<path d="M82 120.596C82 117.25 84.7018 114.539 88.0359 114.539H111.892V126.654H88.0359C84.7018 126.654 82 123.942 82 120.596Z" fill="url(#paint11_linear_510_524)"/>
<path d="M138.623 178C135.289 178 132.587 175.288 132.587 171.942V148H144.659V171.942C144.659 175.288 141.957 178 138.623 178Z" fill="url(#paint12_linear_510_524)"/>
<path d="M114.479 178C111.145 178 108.443 175.288 108.443 171.942V148H120.515V171.942C120.515 175.288 117.813 178 114.479 178Z" fill="url(#paint13_linear_510_524)"/>
<path d="M171.676 121.173C171.676 124.519 168.974 127.231 165.64 127.231H141.784V115.115H165.64C168.974 115.115 171.676 117.827 171.676 121.173Z" fill="url(#paint14_linear_510_524)"/>
<path d="M171.676 145.404C171.676 148.75 168.974 151.462 165.64 151.462H141.784V139.346H165.64C168.974 139.346 171.676 142.058 171.676 145.404Z" fill="url(#paint15_linear_510_524)"/>
<g filter="url(#filter2_b_510_524)">
<path d="M147.821 103H105.856C100.936 103 96.9463 107.004 96.9463 111.942V154.058C96.9463 158.996 100.936 163 105.856 163H147.821C152.742 163 156.731 158.996 156.731 154.058V111.942C156.731 107.004 152.742 103 147.821 103Z" fill="url(#paint16_linear_510_524)"/>
<path d="M105.856 104H147.821C152.186 104 155.731 107.552 155.731 111.942V154.058C155.731 158.448 152.186 162 147.821 162H105.856C101.491 162 97.9463 158.448 97.9463 154.058V111.942C97.9463 107.552 101.491 104 105.856 104Z" stroke="url(#paint17_linear_510_524)" stroke-width="2"/>
</g>
<path d="M141.784 118H111.892V148H141.784V118Z" fill="white"/>
<defs>
<filter id="filter0_f_510_524" x="0.322998" y="6.10352e-05" width="265.677" height="266" filterUnits="userSpaceOnUse" color-interpolation-filters="sRGB">
<feFlood flood-opacity="0" result="BackgroundImageFix"/>
<feBlend mode="normal" in="SourceGraphic" in2="BackgroundImageFix" result="shape"/>
<feGaussianBlur stdDeviation="44" result="effect1_foregroundBlur_510_524"/>
</filter>
<filter id="filter1_f_510_524" x="30.2153" y="30.0001" width="205.892" height="206" filterUnits="userSpaceOnUse" color-interpolation-filters="sRGB">
<feFlood flood-opacity="0" result="BackgroundImageFix"/>
<feBlend mode="normal" in="SourceGraphic" in2="BackgroundImageFix" result="shape"/>
<feGaussianBlur stdDeviation="44" result="effect1_foregroundBlur_510_524"/>
</filter>
<filter id="filter2_b_510_524" x="78.9463" y="85" width="95.7844" height="96" filterUnits="userSpaceOnUse" color-interpolation-filters="sRGB">
<feFlood flood-opacity="0" result="BackgroundImageFix"/>
<feGaussianBlur in="BackgroundImageFix" stdDeviation="9"/>
<feComposite in2="SourceAlpha" operator="in" result="effect1_backgroundBlur_510_524"/>
<feBlend mode="normal" in="SourceGraphic" in2="effect1_backgroundBlur_510_524" result="shape"/>
</filter>
<linearGradient id="paint0_linear_510_524" x1="98.2158" y1="82.2712" x2="183.151" y2="164.096" gradientUnits="userSpaceOnUse">
<stop stop-color="#B14DFF"/>
<stop offset="0.99" stop-color="#652AC6"/>
</linearGradient>
<linearGradient id="paint1_linear_510_524" x1="110.943" y1="71.1885" x2="195.879" y2="153.014" gradientUnits="userSpaceOnUse">
<stop stop-color="#B14DFF"/>
<stop offset="0.99" stop-color="#652AC6"/>
</linearGradient>
<linearGradient id="paint2_linear_510_524" x1="71.3074" y1="112.069" x2="156.352" y2="194.004" gradientUnits="userSpaceOnUse">
<stop stop-color="#B14DFF"/>
<stop offset="0.99" stop-color="#652AC6"/>
</linearGradient>
<linearGradient id="paint3_linear_510_524" x1="82.3618" y1="98.5693" x2="167.412" y2="180.498" gradientUnits="userSpaceOnUse">
<stop stop-color="#B14DFF"/>
<stop offset="0.99" stop-color="#652AC6"/>
</linearGradient>
<linearGradient id="paint4_linear_510_524" x1="83.2356" y1="101.379" x2="168.171" y2="183.204" gradientUnits="userSpaceOnUse">
<stop stop-color="#B14DFF"/>
<stop offset="0.99" stop-color="#652AC6"/>
</linearGradient>
<linearGradient id="paint5_linear_510_524" x1="70.5143" y1="112.462" x2="155.45" y2="194.287" gradientUnits="userSpaceOnUse">
<stop stop-color="#B14DFF"/>
<stop offset="0.99" stop-color="#652AC6"/>
</linearGradient>
<linearGradient id="paint6_linear_510_524" x1="110.035" y1="71.4712" x2="195.086" y2="153.406" gradientUnits="userSpaceOnUse">
<stop stop-color="#B14DFF"/>
<stop offset="0.99" stop-color="#652AC6"/>
</linearGradient>
<linearGradient id="paint7_linear_510_524" x1="98.9808" y1="84.977" x2="184.026" y2="166.906" gradientUnits="userSpaceOnUse">
<stop stop-color="#B14DFF"/>
<stop offset="0.99" stop-color="#652AC6"/>
</linearGradient>
<linearGradient id="paint8_linear_510_524" x1="91.893" y1="82.2712" x2="176.828" y2="164.096" gradientUnits="userSpaceOnUse">
<stop stop-color="#B14DFF"/>
<stop offset="0.99" stop-color="#652AC6"/>
</linearGradient>
<linearGradient id="paint9_linear_510_524" x1="104.62" y1="71.1885" x2="189.555" y2="153.014" gradientUnits="userSpaceOnUse">
<stop stop-color="#B14DFF"/>
<stop offset="0.99" stop-color="#652AC6"/>
</linearGradient>
<linearGradient id="paint10_linear_510_524" x1="64.9844" y1="112.069" x2="150.029" y2="194.004" gradientUnits="userSpaceOnUse">
<stop stop-color="#B14DFF"/>
<stop offset="0.99" stop-color="#652AC6"/>
</linearGradient>
<linearGradient id="paint11_linear_510_524" x1="76.0388" y1="98.5693" x2="161.089" y2="180.498" gradientUnits="userSpaceOnUse">
<stop stop-color="#B14DFF"/>
<stop offset="0.99" stop-color="#652AC6"/>
</linearGradient>
<linearGradient id="paint12_linear_510_524" x1="76.9126" y1="101.379" x2="161.848" y2="183.204" gradientUnits="userSpaceOnUse">
<stop stop-color="#B14DFF"/>
<stop offset="0.99" stop-color="#652AC6"/>
</linearGradient>
<linearGradient id="paint13_linear_510_524" x1="64.1913" y1="112.462" x2="149.127" y2="194.287" gradientUnits="userSpaceOnUse">
<stop stop-color="#B14DFF"/>
<stop offset="0.99" stop-color="#652AC6"/>
</linearGradient>
<linearGradient id="paint14_linear_510_524" x1="103.712" y1="71.4712" x2="188.762" y2="153.406" gradientUnits="userSpaceOnUse">
<stop stop-color="#B14DFF"/>
<stop offset="0.99" stop-color="#652AC6"/>
</linearGradient>
<linearGradient id="paint15_linear_510_524" x1="92.6573" y1="84.977" x2="177.702" y2="166.906" gradientUnits="userSpaceOnUse">
<stop stop-color="#B14DFF"/>
<stop offset="0.99" stop-color="#652AC6"/>
</linearGradient>
<linearGradient id="paint16_linear_510_524" x1="100.321" y1="159.613" x2="153.546" y2="106.579" gradientUnits="userSpaceOnUse">
<stop stop-color="white" stop-opacity="0.2"/>
<stop offset="1" stop-color="white" stop-opacity="0.49"/>
</linearGradient>
<linearGradient id="paint17_linear_510_524" x1="101.166" y1="107.719" x2="151.332" y2="161.165" gradientUnits="userSpaceOnUse">
<stop stop-color="white"/>
<stop offset="1" stop-color="white" stop-opacity="0"/>
</linearGradient>
</defs>
</svg>
