<svg width="274" height="275" viewBox="0 0 274 275" fill="none" xmlns="http://www.w3.org/2000/svg">
<g filter="url(#filter0_f_510_109)">
<path d="M140.356 129.859C143.178 132.917 143.348 137.872 144.791 141.638C146.282 145.545 149.338 149.206 149.338 153.366C149.338 157.525 146.282 161.187 144.791 165.093C143.356 168.859 143.186 173.806 140.356 176.873C137.527 179.94 132.963 180.115 129.489 181.679C125.885 183.296 122.507 186.608 118.669 186.608C114.831 186.608 111.453 183.296 107.849 181.679C104.374 180.124 99.8112 179.94 96.9814 176.873C94.1596 173.814 93.9903 168.859 92.5471 165.093C91.104 161.327 88 157.525 88 153.366C88 149.206 91.0556 145.545 92.5471 141.638C93.9822 137.872 94.1515 132.926 96.9814 129.859C99.8032 126.8 104.374 126.616 107.849 125.052C111.453 123.436 114.831 120.124 118.669 120.124C122.507 120.124 125.885 123.436 129.489 125.052C132.963 126.608 137.527 126.791 140.356 129.859Z" fill="url(#paint0_linear_510_109)"/>
</g>
<g filter="url(#filter1_f_510_109)">
<path d="M185.997 109.357C186.085 112.163 184.151 114.583 183.304 117.056C182.417 119.617 182.377 122.815 180.684 124.781C178.991 126.747 176.048 127.018 173.758 128.154C171.541 129.247 169.453 131.51 166.865 131.615C164.277 131.72 162.044 129.614 159.762 128.696C157.48 127.779 154.449 127.691 152.635 125.856C150.821 124.021 150.571 120.831 149.523 118.35C148.515 115.946 146.427 113.683 146.33 110.878C146.242 108.073 148.177 105.652 149.023 103.179C149.91 100.619 149.95 97.4203 151.643 95.4541C153.336 93.4878 156.279 93.2169 158.569 92.0809C160.778 90.9798 162.874 88.7165 165.454 88.6116C168.034 88.5068 170.275 90.6128 172.557 91.5304C174.839 92.4479 177.87 92.5353 179.684 94.3704C181.498 96.2056 181.748 99.3952 182.796 101.877C183.804 104.28 185.892 106.544 185.989 109.349L185.997 109.357Z" fill="url(#paint1_linear_510_109)"/>
</g>
<path d="M140.356 129.858C143.178 132.917 143.348 137.872 144.791 141.638C146.282 145.544 149.338 149.206 149.338 153.366C149.338 157.525 146.282 161.187 144.791 165.093C143.356 168.859 143.186 173.805 140.356 176.873C137.527 179.94 132.963 180.115 129.489 181.679C125.885 183.296 122.507 186.608 118.669 186.608C114.831 186.608 111.453 183.296 107.849 181.679C104.374 180.124 99.8112 179.94 96.9814 176.873C94.1596 173.814 93.9903 168.859 92.5471 165.093C91.104 161.327 88 157.525 88 153.366C88 149.206 91.0556 145.544 92.5471 141.638C93.9822 137.872 94.1515 132.926 96.9814 129.858C99.8032 126.8 104.374 126.616 107.849 125.052C111.453 123.435 114.831 120.123 118.669 120.123C122.507 120.123 125.885 123.435 129.489 125.052C132.963 126.608 137.527 126.791 140.356 129.858Z" fill="url(#paint2_linear_510_109)"/>
<path d="M185.997 109.357C186.086 112.163 184.151 114.583 183.304 117.056C182.417 119.617 182.377 122.815 180.684 124.781C178.991 126.747 176.048 127.018 173.758 128.154C171.541 129.247 169.453 131.51 166.865 131.615C164.277 131.72 162.044 129.614 159.762 128.696C157.481 127.779 154.449 127.691 152.635 125.856C150.821 124.021 150.571 120.831 149.523 118.35C148.515 115.946 146.427 113.683 146.331 110.878C146.242 108.073 148.177 105.652 149.023 103.179C149.91 100.619 149.951 97.4203 151.644 95.4541C153.337 93.4878 156.279 93.2169 158.569 92.0809C160.778 90.9798 162.874 88.7165 165.454 88.6116C168.034 88.5068 170.276 90.6128 172.557 91.5304C174.839 92.4479 177.87 92.5353 179.684 94.3704C181.498 96.2056 181.748 99.3952 182.796 101.877C183.804 104.28 185.892 106.544 185.989 109.349L185.997 109.357Z" fill="url(#paint3_linear_510_109)"/>
<g filter="url(#filter2_b_510_109)">
<path d="M178.185 168.466L170.703 160.357C181.668 144.155 180.402 121.26 166.881 106.613C151.958 90.438 127.763 90.438 112.84 106.613C97.9166 122.789 97.9166 149.014 112.84 165.18C125.965 179.407 146.274 181.111 161.125 170.301L168.808 178.629C171.396 181.434 175.597 181.434 178.185 178.629C180.773 175.824 180.773 171.271 178.185 168.466Z" fill="url(#paint4_linear_510_109)"/>
<path d="M169.875 159.796L169.431 160.452L169.968 161.035L177.45 169.144C179.684 171.566 179.684 175.529 177.45 177.951C175.258 180.327 171.735 180.327 169.543 177.951L161.86 169.623L161.256 168.969L160.536 169.493C146.097 180.003 126.357 178.357 113.575 164.502L113.575 164.502C99.0051 148.719 99.0049 123.084 113.575 107.292C128.102 91.5453 151.619 91.5453 166.146 107.292L166.147 107.292C179.342 121.586 180.588 143.966 169.875 159.796Z" stroke="url(#paint5_linear_510_109)" stroke-width="2"/>
</g>
<defs>
<filter id="filter0_f_510_109" x="0" y="32.1236" width="237.338" height="242.484" filterUnits="userSpaceOnUse" color-interpolation-filters="sRGB">
<feFlood flood-opacity="0" result="BackgroundImageFix"/>
<feBlend mode="normal" in="SourceGraphic" in2="BackgroundImageFix" result="shape"/>
<feGaussianBlur stdDeviation="44" result="effect1_foregroundBlur_510_109"/>
</filter>
<filter id="filter1_f_510_109" x="58.3274" y="0.607849" width="215.672" height="219.011" filterUnits="userSpaceOnUse" color-interpolation-filters="sRGB">
<feFlood flood-opacity="0" result="BackgroundImageFix"/>
<feBlend mode="normal" in="SourceGraphic" in2="BackgroundImageFix" result="shape"/>
<feGaussianBlur stdDeviation="44" result="effect1_foregroundBlur_510_109"/>
</filter>
<filter id="filter2_b_510_109" x="83.6475" y="76.4819" width="114.478" height="122.251" filterUnits="userSpaceOnUse" color-interpolation-filters="sRGB">
<feFlood flood-opacity="0" result="BackgroundImageFix"/>
<feGaussianBlur in="BackgroundImageFix" stdDeviation="9"/>
<feComposite in2="SourceAlpha" operator="in" result="effect1_backgroundBlur_510_109"/>
<feBlend mode="normal" in="SourceGraphic" in2="effect1_backgroundBlur_510_109" result="shape"/>
</filter>
<linearGradient id="paint0_linear_510_109" x1="133.004" y1="127.429" x2="101.025" y2="176.679" gradientUnits="userSpaceOnUse">
<stop stop-color="#10994D"/>
<stop offset="1" stop-color="#00FF79"/>
</linearGradient>
<linearGradient id="paint1_linear_510_109" x1="183.326" y1="104.622" x2="148.463" y2="113.907" gradientUnits="userSpaceOnUse">
<stop stop-color="#10E4E2"/>
<stop offset="1" stop-color="#00FF79"/>
</linearGradient>
<linearGradient id="paint2_linear_510_109" x1="133.004" y1="127.429" x2="101.025" y2="176.679" gradientUnits="userSpaceOnUse">
<stop stop-color="#10994D"/>
<stop offset="1" stop-color="#00FF79"/>
</linearGradient>
<linearGradient id="paint3_linear_510_109" x1="183.326" y1="104.622" x2="148.464" y2="113.907" gradientUnits="userSpaceOnUse">
<stop stop-color="#10E4E2"/>
<stop offset="1" stop-color="#00FF79"/>
</linearGradient>
<linearGradient id="paint4_linear_510_109" x1="106.078" y1="175.864" x2="182.251" y2="106.556" gradientUnits="userSpaceOnUse">
<stop stop-color="white" stop-opacity="0.2"/>
<stop offset="1" stop-color="white" stop-opacity="0.49"/>
</linearGradient>
<linearGradient id="paint5_linear_510_109" x1="107.187" y1="101.265" x2="179.419" y2="171.538" gradientUnits="userSpaceOnUse">
<stop stop-color="white"/>
<stop offset="1" stop-color="white" stop-opacity="0"/>
</linearGradient>
</defs>
</svg>
