<svg width="233" height="240" viewBox="0 0 233 240" fill="none" xmlns="http://www.w3.org/2000/svg">
<g filter="url(#filter0_f_510_379)">
<path d="M144.424 146.551C141.88 133.452 130.328 123.565 116.454 123.565C102.579 123.565 91.0274 133.452 88.4831 146.551C87.9315 149.378 90.1711 152 93.0529 152H139.846C142.736 152 144.967 149.387 144.416 146.551H144.424Z" fill="url(#paint0_linear_510_379)"/>
<path d="M116.453 116.884C124.266 116.884 130.599 110.563 130.599 102.766C130.599 94.9682 124.266 88.6472 116.453 88.6472C108.641 88.6472 102.308 94.9682 102.308 102.766C102.308 110.563 108.641 116.884 116.453 116.884Z" fill="url(#paint1_linear_510_379)"/>
</g>
<path d="M144.424 146.552C141.88 133.452 130.328 123.566 116.454 123.566C102.579 123.566 91.0274 133.452 88.4831 146.552C87.9315 149.379 90.1711 152 93.0529 152H139.846C142.736 152 144.967 149.387 144.416 146.552H144.424Z" fill="url(#paint2_linear_510_379)"/>
<path d="M116.453 116.884C124.266 116.884 130.599 110.563 130.599 102.766C130.599 94.9684 124.266 88.6473 116.453 88.6473C108.641 88.6473 102.308 94.9684 102.308 102.766C102.308 110.563 108.641 116.884 116.453 116.884Z" fill="url(#paint3_linear_510_379)"/>
<g filter="url(#filter1_b_510_379)">
<path d="M105.741 145.171C102.547 128.751 88.0634 116.35 70.6735 116.35C53.2836 116.35 38.8003 128.751 35.6055 145.171C34.9139 148.721 37.7134 152 41.3363 152H100.002C103.625 152 106.425 148.721 105.733 145.171H105.741Z" fill="url(#paint4_linear_510_379)"/>
<path d="M70.6735 117.35C87.3149 117.35 101.218 129.034 104.608 144.623L104.752 145.362C105.318 148.271 103.021 151 100.002 151H41.3363C38.3176 151 36.0204 148.271 36.5871 145.362L36.5871 145.362C39.6919 129.404 53.7701 117.35 70.6735 117.35Z" stroke="url(#paint5_linear_510_379)" stroke-width="2"/>
</g>
<g filter="url(#filter2_b_510_379)">
<path d="M74.7342 107.505C84.263 105.26 90.1644 95.7308 87.9154 86.2203C85.6664 76.7098 76.1186 70.8197 66.5898 73.0644C57.061 75.3091 51.1596 84.8385 53.4086 94.349C55.6576 103.859 65.2054 109.75 74.7342 107.505Z" fill="url(#paint6_linear_510_379)"/>
<path d="M86.9421 86.4496C89.0636 95.421 83.4969 104.413 74.5041 106.532C65.5113 108.65 56.5035 103.091 54.382 94.1197C52.2604 85.1482 57.8272 76.1559 66.82 74.0375C75.8128 71.9191 84.8206 77.4781 86.9421 86.4496Z" stroke="url(#paint7_linear_510_379)" stroke-width="2"/>
</g>
<defs>
<filter id="filter0_f_510_379" x="0.39917" y="0.647156" width="232.101" height="239.353" filterUnits="userSpaceOnUse" color-interpolation-filters="sRGB">
<feFlood flood-opacity="0" result="BackgroundImageFix"/>
<feBlend mode="normal" in="SourceGraphic" in2="BackgroundImageFix" result="shape"/>
<feGaussianBlur stdDeviation="44" result="effect1_foregroundBlur_510_379"/>
</filter>
<filter id="filter1_b_510_379" x="17.5" y="98.3503" width="106.339" height="71.6498" filterUnits="userSpaceOnUse" color-interpolation-filters="sRGB">
<feFlood flood-opacity="0" result="BackgroundImageFix"/>
<feGaussianBlur in="BackgroundImageFix" stdDeviation="9"/>
<feComposite in2="SourceAlpha" operator="in" result="effect1_backgroundBlur_510_379"/>
<feBlend mode="normal" in="SourceGraphic" in2="effect1_backgroundBlur_510_379" result="shape"/>
</filter>
<filter id="filter2_b_510_379" x="34.9307" y="54.5872" width="71.4629" height="71.3948" filterUnits="userSpaceOnUse" color-interpolation-filters="sRGB">
<feFlood flood-opacity="0" result="BackgroundImageFix"/>
<feGaussianBlur in="BackgroundImageFix" stdDeviation="9"/>
<feComposite in2="SourceAlpha" operator="in" result="effect1_backgroundBlur_510_379"/>
<feBlend mode="normal" in="SourceGraphic" in2="effect1_backgroundBlur_510_379" result="shape"/>
</filter>
<linearGradient id="paint0_linear_510_379" x1="116.454" y1="167.647" x2="116.454" y2="82.1548" gradientUnits="userSpaceOnUse">
<stop stop-color="#F6005A"/>
<stop offset="1" stop-color="#F7CBAD"/>
</linearGradient>
<linearGradient id="paint1_linear_510_379" x1="116.453" y1="-282.191" x2="116.453" y2="82.1549" gradientUnits="userSpaceOnUse">
<stop stop-color="#F6005A"/>
<stop offset="1" stop-color="#F7CBAD"/>
</linearGradient>
<linearGradient id="paint2_linear_510_379" x1="116.454" y1="167.647" x2="116.454" y2="82.155" gradientUnits="userSpaceOnUse">
<stop stop-color="#F6005A"/>
<stop offset="1" stop-color="#F7CBAD"/>
</linearGradient>
<linearGradient id="paint3_linear_510_379" x1="116.453" y1="-282.191" x2="116.453" y2="82.155" gradientUnits="userSpaceOnUse">
<stop stop-color="#F6005A"/>
<stop offset="1" stop-color="#F7CBAD"/>
</linearGradient>
<linearGradient id="paint4_linear_510_379" x1="39.471" y1="149.987" x2="64.976" y2="99.665" gradientUnits="userSpaceOnUse">
<stop stop-color="white" stop-opacity="0.2"/>
<stop offset="1" stop-color="white" stop-opacity="0.49"/>
</linearGradient>
<linearGradient id="paint5_linear_510_379" x1="40.4651" y1="119.154" x2="63.5848" y2="167.928" gradientUnits="userSpaceOnUse">
<stop stop-color="white"/>
<stop offset="1" stop-color="white" stop-opacity="0"/>
</linearGradient>
<linearGradient id="paint6_linear_510_379" x1="58.9691" y1="109.166" x2="82.2899" y2="71.3632" gradientUnits="userSpaceOnUse">
<stop stop-color="white" stop-opacity="0.2"/>
<stop offset="1" stop-color="white" stop-opacity="0.49"/>
</linearGradient>
<linearGradient id="paint7_linear_510_379" x1="52.4128" y1="79.2636" x2="88.4938" y2="103.315" gradientUnits="userSpaceOnUse">
<stop stop-color="white"/>
<stop offset="1" stop-color="white" stop-opacity="0"/>
</linearGradient>
</defs>
</svg>
