<svg width="48" height="48" viewBox="0 0 48 48" fill="none" xmlns="http://www.w3.org/2000/svg">
<path d="M47.7188 24.5522C47.7188 22.9207 47.5865 21.2804 47.3043 19.6754H24.6667V28.9174H37.6302C37.0923 31.8981 35.3638 34.5349 32.8329 36.2104V42.2071H40.5668C45.1085 38.0271 47.7188 31.854 47.7188 24.5522Z" fill="#4285F4"/>
<path d="M24.6667 48.0008C31.1396 48.0008 36.5984 45.8755 40.5756 42.207L32.8416 36.2103C30.6899 37.6742 27.912 38.5031 24.6755 38.5031C18.4143 38.5031 13.1055 34.279 11.2006 28.5998H3.21973V34.7816C7.29395 42.886 15.5923 48.0008 24.6667 48.0008Z" fill="#34A853"/>
<path d="M11.1918 28.5996C10.1865 25.6189 10.1865 22.3913 11.1918 19.4106V13.2287H3.21975C-0.184253 20.0102 -0.184253 27.9999 3.21975 34.7815L11.1918 28.5996Z" fill="#FBBC04"/>
<path d="M24.6667 9.4985C28.0884 9.44558 31.3954 10.7331 33.8734 13.0965L40.7255 6.24441C36.3867 2.17019 30.6281 -0.069756 24.6667 0.000793357C15.5923 0.000793357 7.29395 5.11562 3.21973 13.2288L11.1918 19.4107C13.0878 13.7226 18.4055 9.4985 24.6667 9.4985Z" fill="#EA4335"/>
</svg>
