<svg width="20" height="21" viewBox="0 0 20 21" fill="none" xmlns="http://www.w3.org/2000/svg">
<g id="Frame">
<path id="Vector" d="M9.10337 4.09104C9.47021 3.34788 10.53 3.34788 10.8968 4.09104L12.3426 7.02017C12.4882 7.31502 12.7694 7.51948 13.0947 7.56703L16.3296 8.03986C17.1495 8.15971 17.4763 9.16755 16.8827 9.74571L14.5435 12.0241C14.3077 12.2538 14.2 12.585 14.2557 12.9095L14.8075 16.127C14.9476 16.944 14.0901 17.567 13.3564 17.1812L10.4655 15.6609C10.1741 15.5076 9.82601 15.5076 9.53463 15.6609L6.64371 17.1812C5.91008 17.567 5.05254 16.944 5.19265 16.127L5.7445 12.9095C5.80016 12.585 5.6925 12.2538 5.45663 12.0241L3.11743 9.74571C2.52383 9.16755 2.85062 8.15971 3.67053 8.03986L6.90545 7.56703C7.2308 7.51948 7.51199 7.31502 7.65753 7.02017L9.10337 4.09104Z" stroke="#FFB800" stroke-linecap="round" stroke-linejoin="round"/>
</g>
</svg>
