<svg width="525" height="535" viewBox="0 0 525 535" fill="none" xmlns="http://www.w3.org/2000/svg">
<path fill-rule="evenodd" clip-rule="evenodd" d="M108.031 102.767C132.763 60.9681 105.837 -2.65895 139.557 -37.6126C171.146 -70.3576 226.318 -73.6795 271.231 -66.4042C314.743 -59.3557 343.584 -18.7367 382.609 1.75872C417.52 20.0939 457.705 25.3457 489.732 48.3509C525.597 74.1123 574.791 99.4369 579.691 143.322C584.88 189.803 520.277 218.944 513.951 265.284C507.41 313.205 569.228 364.179 543.917 405.392C519.319 445.445 449.447 414.388 408.36 437.216C367.735 459.788 357.603 536.349 311.158 534.715C262.155 532.99 251.951 456.015 210.236 430.244C177.628 410.099 132.207 424.479 99.7427 404.105C64.6359 382.072 35.9011 349.049 19.9226 310.805C3.43178 271.335 -8.63243 224.031 8.0499 184.641C25.062 144.472 85.8167 140.309 108.031 102.767Z" fill="#3D32F9"/>
</svg>
