<svg width="110" height="538" viewBox="0 0 110 538" fill="none" xmlns="http://www.w3.org/2000/svg">
<path fill-rule="evenodd" clip-rule="evenodd" d="M72.4983 98.2257C93.1813 62.1721 149.24 70.1153 189.583 60.1134C221.841 52.1161 254.783 53.6935 286.881 45.0763C327.217 34.2474 363.78 -11.1639 403.148 2.77825C441.83 16.4773 433.276 80.9415 464.229 107.883C500.811 139.725 569.77 127.198 594.215 169.085C616.822 207.822 593.24 259.071 576.819 300.807C561.831 338.906 527.814 364.501 504.182 397.933C480.752 431.08 469.831 473.484 437.454 497.968C403.98 523.281 361.517 539.38 319.59 537.523C278.401 535.699 247.211 500.637 208.029 487.806C165.749 473.962 116.231 483.911 79.446 458.888C41.1719 432.852 -2.56929 392.88 0.591622 346.698C4.16594 294.476 80.966 274.366 95.517 224.085C107.523 182.597 51.0065 135.689 72.4983 98.2257Z" fill="#391F6F"/>
</svg>
