<svg width="403" height="542" viewBox="0 0 403 542" fill="none" xmlns="http://www.w3.org/2000/svg">
<path fill-rule="evenodd" clip-rule="evenodd" d="M57.8144 153.363C83.3785 120.704 135.765 126.333 169.559 102.29C208.152 74.8318 223.076 15.2057 268.891 3.19092C313.245 -8.44059 361.36 15.9701 399.031 42.1114C434.548 66.7578 453.08 108.061 474.297 145.727C492.339 177.759 506.423 211.09 514.422 246.972C522.073 281.296 516.121 316.051 520.056 350.997C525.344 397.962 575.26 456.031 541.711 489.321C504.328 526.416 431.625 458.317 385.781 484.237C339.976 510.135 358.631 600.574 309.887 620.394C268.203 637.344 225.338 590.772 188.978 564.261C157.079 541.003 141.531 502.434 112.066 476.159C78.766 446.463 20.135 441.317 4.32428 399.594C-11.1819 358.675 26.0688 316.495 35.3581 273.734C44.1326 233.342 32.3368 185.911 57.8144 153.363Z" fill="#CE1AFE"/>
</svg>
