<svg width="342" height="388" viewBox="0 0 342 388" fill="none" xmlns="http://www.w3.org/2000/svg">
<path fill-rule="evenodd" clip-rule="evenodd" d="M167.605 36.2788C199.631 33.9502 224.035 -4.66418 255.732 0.469429C285.427 5.27865 308.034 33.9893 321.018 61.1247C333.596 87.4138 322.411 118.393 325.995 147.315C329.201 173.189 341.5 196.994 341.083 223.062C340.615 252.253 345.41 288.52 323.424 307.728C300.136 328.072 259.951 303.974 232.399 318.012C203.907 332.528 199.532 385.322 167.605 387.116C136.577 388.859 127.099 339.201 99.2086 325.494C71.6322 311.942 26.2313 335.307 9.60643 309.467C-7.93409 282.203 30.0236 247.637 28.2908 215.264C26.9362 189.96 1.9999 170.714 0.824113 145.4C-0.447375 118.026 6.65264 89.9687 21.3981 66.8705C36.6163 43.0316 57.7582 18.6431 85.441 12.8509C113.671 6.94416 138.84 38.3702 167.605 36.2788Z" fill="#3D32F9"/>
</svg>
