<svg width="371" height="353" viewBox="0 0 371 353" fill="none" xmlns="http://www.w3.org/2000/svg">
<path fill-rule="evenodd" clip-rule="evenodd" d="M193.809 0.40974C221.188 -1.95175 238.012 31.4884 258.656 49.6276C275.162 64.1313 286.727 82.617 303.51 96.8C324.6 114.623 363.049 117.358 370.321 143.995C377.467 170.169 339.231 189.83 336.27 216.799C332.77 248.673 365.575 281.401 352.044 310.471C339.53 337.355 302.805 343.871 273.947 350.691C247.604 356.916 220.877 348.092 193.809 347.863C166.973 347.637 139.825 357.695 114.32 349.343C87.9511 340.708 63.1965 323.716 48.3962 300.246C33.8562 277.188 41.1379 247.029 33.3319 220.911C24.9088 192.729 0.834585 169.587 0.55428 140.174C0.262627 109.57 5.478 70.743 31.7512 55.0464C61.4605 37.2968 101.34 71.424 134.135 60.3677C161.194 51.2449 165.359 2.86358 193.809 0.40974Z" fill="#391F6F"/>
</svg>
