<svg width="365" height="390" viewBox="0 0 365 390" fill="none" xmlns="http://www.w3.org/2000/svg">
<path fill-rule="evenodd" clip-rule="evenodd" d="M175.894 0.0677837C203.27 1.63733 219.966 32.2103 245.766 41.4981C275.23 52.105 313.24 37.7274 337.04 58.0792C360.081 77.7817 364.966 113.117 364.973 143.433C364.98 172.016 349.536 197.654 337.079 223.379C326.486 245.255 313.694 265.472 297.223 283.346C281.467 300.444 260.347 310.316 242.852 325.63C219.339 346.211 206.623 395.215 175.894 389.547C141.652 383.231 151.223 318.069 119.86 302.945C88.5234 287.833 46.4407 332.065 17.2969 313.066C-7.62591 296.819 1.5044 255.979 2.19247 226.236C2.79613 200.141 17.8802 177.155 21.0404 151.245C24.612 121.963 5.29937 88.1799 21.9973 63.8612C38.3737 40.0109 75.3273 44.3372 102.053 33.2586C127.299 22.7939 148.61 -1.49645 175.894 0.0677837Z" fill="#CE1AFE"/>
</svg>
