<svg width="368" height="354" viewBox="0 0 368 354" fill="none" xmlns="http://www.w3.org/2000/svg">
<g filter="url(#filter0_f_47_3053)">
<path d="M261.826 106.113C284.832 129.119 284.818 166.469 261.826 189.461L195.666 255.621C182.331 268.956 160.7 268.956 147.365 255.621L88.1546 196.411L178.465 106.1C201.471 83.0946 238.821 83.108 261.813 106.1L261.826 106.113Z" fill="url(#paint0_linear_47_3053)"/>
</g>
<path d="M261.826 106.113C284.832 129.119 284.818 166.469 261.826 189.461L195.666 255.621C182.331 268.956 160.7 268.956 147.365 255.621L88.1546 196.411L178.465 106.1C201.471 83.0946 238.821 83.108 261.813 106.1L261.826 106.113Z" fill="url(#paint1_linear_47_3053)"/>
<g filter="url(#filter1_b_47_3053)">
<path d="M81.1869 106.118C104.192 83.1122 141.542 83.1256 164.534 106.118L254.845 196.428L195.635 255.639C182.3 268.974 160.669 268.974 147.334 255.639L81.1734 189.478C58.1681 166.473 58.1815 129.123 81.1734 106.131L81.1869 106.118Z" fill="url(#paint2_linear_47_3053)"/>
<path d="M81.894 106.825C104.509 84.2099 141.226 84.2231 163.827 106.825L253.431 196.428L194.927 254.932C181.984 267.876 160.985 267.876 148.041 254.932L81.8805 188.771C59.2658 166.157 59.279 129.44 81.8805 106.838L81.894 106.825Z" stroke="url(#paint3_linear_47_3053)" stroke-width="2"/>
</g>
<defs>
<filter id="filter0_f_47_3053" x="0.154541" y="0.851074" width="366.921" height="352.771" filterUnits="userSpaceOnUse" color-interpolation-filters="sRGB">
<feFlood flood-opacity="0" result="BackgroundImageFix"/>
<feBlend mode="normal" in="SourceGraphic" in2="BackgroundImageFix" result="shape"/>
<feGaussianBlur stdDeviation="44" result="effect1_foregroundBlur_47_3053"/>
</filter>
<filter id="filter1_b_47_3053" x="45.9246" y="70.8687" width="226.921" height="212.771" filterUnits="userSpaceOnUse" color-interpolation-filters="sRGB">
<feFlood flood-opacity="0" result="BackgroundImageFix"/>
<feGaussianBlur in="BackgroundImageFix" stdDeviation="9"/>
<feComposite in2="SourceAlpha" operator="in" result="effect1_backgroundBlur_47_3053"/>
<feBlend mode="normal" in="SourceGraphic" in2="effect1_backgroundBlur_47_3053" result="shape"/>
</filter>
<linearGradient id="paint0_linear_47_3053" x1="269.792" y1="104.696" x2="126.816" y2="236.301" gradientUnits="userSpaceOnUse">
<stop stop-color="#F26DFF"/>
<stop offset="1" stop-color="#FF027A"/>
</linearGradient>
<linearGradient id="paint1_linear_47_3053" x1="269.792" y1="104.696" x2="126.816" y2="236.301" gradientUnits="userSpaceOnUse">
<stop stop-color="#F26DFF"/>
<stop offset="1" stop-color="#FF027A"/>
</linearGradient>
<linearGradient id="paint2_linear_47_3053" x1="168.739" y1="267.632" x2="207.688" y2="95.1351" gradientUnits="userSpaceOnUse">
<stop stop-color="white" stop-opacity="0.2"/>
<stop offset="1" stop-color="white" stop-opacity="0.49"/>
</linearGradient>
<linearGradient id="paint3_linear_47_3053" x1="55.7644" y1="152.301" x2="227.6" y2="118.999" gradientUnits="userSpaceOnUse">
<stop stop-color="white"/>
<stop offset="1" stop-color="white" stop-opacity="0"/>
</linearGradient>
</defs>
</svg>
