<svg width="581" height="605" viewBox="0 0 581 605" fill="none" xmlns="http://www.w3.org/2000/svg">
<path fill-rule="evenodd" clip-rule="evenodd" d="M108.629 172.861C133.361 131.062 106.435 67.4353 140.155 32.4817C171.744 -0.263265 226.915 -3.58521 271.828 3.69014C315.341 10.7386 344.182 51.3576 383.207 71.853C418.118 90.1882 458.303 95.44 490.33 118.445C526.195 144.207 575.389 169.531 580.288 213.416C585.478 259.898 520.875 289.038 514.549 335.378C508.008 383.299 569.826 434.273 544.515 475.487C519.917 515.54 450.045 484.482 408.958 507.311C368.333 529.882 358.201 606.444 311.756 604.809C262.753 603.085 252.549 526.109 210.834 500.338C178.226 480.194 132.805 494.574 100.341 474.199C65.2338 452.167 36.499 419.144 20.5205 380.899C4.02968 341.429 -8.03453 294.125 8.6478 254.735C25.6599 214.566 86.4146 210.404 108.629 172.861Z" fill="#3D32F9"/>
</svg>
