<svg width="604" height="538" viewBox="0 0 604 538" fill="none" xmlns="http://www.w3.org/2000/svg">
<path fill-rule="evenodd" clip-rule="evenodd" d="M72.096 98.3199C92.779 62.2663 148.837 70.2095 189.181 60.2076C221.439 52.2103 254.381 53.7877 286.479 45.1705C326.815 34.3416 363.378 -11.0697 402.746 2.87243C441.428 16.5714 432.874 81.0356 463.826 107.977C500.409 139.819 569.367 127.292 593.813 169.18C616.42 207.916 592.837 259.165 576.417 300.902C561.428 339 527.411 364.595 503.779 398.027C480.349 431.174 469.428 473.579 437.052 498.062C403.578 523.375 361.115 539.474 319.188 537.617C277.999 535.793 246.809 500.731 207.626 487.901C165.346 474.056 115.829 484.005 79.0437 458.982C40.7696 432.946 -2.97164 392.974 0.189279 346.792C3.76359 294.571 80.5636 274.46 95.1147 224.179C107.121 182.691 50.6041 135.784 72.096 98.3199Z" fill="#391F6F"/>
</svg>
