<svg width="109" height="43" viewBox="0 0 109 43" fill="none" xmlns="http://www.w3.org/2000/svg">
<path d="M64.9315 11.4284C62.1883 8.68522 58.9316 6.50912 55.3475 5.02452C51.7633 3.53992 47.9219 2.77582 44.0424 2.77582C40.1629 2.77582 36.3215 3.53992 32.7373 5.02452C29.1532 6.50912 25.8965 8.68522 23.1533 11.4284L44.0424 32.3174L64.9315 11.4284Z" fill="#442781"/>
<path d="M44.0684 32.3475C46.8116 35.0907 50.0682 37.2667 53.6524 38.7513C57.2365 40.2359 61.078 41 64.9575 41C68.8368 41 72.6788 40.2359 76.2628 38.7513C79.8468 37.2667 83.1038 35.0907 85.8468 32.3475L64.9575 11.4584L44.0684 32.3475Z" fill="#A992DB"/>
<path d="M44.017 32.3429C41.2738 35.0861 38.0171 37.2621 34.433 38.7467C30.8488 40.2313 27.0074 40.9954 23.1279 40.9954C19.2484 40.9954 15.407 40.2313 11.8228 38.7467C8.23867 37.2621 4.98197 35.0861 2.23877 32.3429L23.1279 11.4538L44.017 32.3429Z" fill="#391F6F"/>
<path d="M64.9829 11.433C67.7258 8.68982 70.9828 6.51382 74.5668 5.02922C78.1508 3.54462 81.9928 2.78052 85.8718 2.78052C89.7518 2.78052 93.5928 3.54462 97.1768 5.02922C100.761 6.51382 104.018 8.68982 106.761 11.433L85.8718 32.3221L64.9829 11.433Z" fill="#C8BEDE"/>
</svg>
